<?xml version="1.0" encoding="utf-8"?>
<!-- Generator: Adobe Illustrator 25.2.3, SVG Export Plug-In . SVG Version: 6.00 Build 0)  -->
<svg version="1.1" id="Lager_1" xmlns="http://www.w3.org/2000/svg" xmlns:xlink="http://www.w3.org/1999/xlink" x="0px" y="0px"
	 viewBox="0 0 800 536" style="enable-background:new 0 0 800 536;" xml:space="preserve">
<style type="text/css">
	.st0{fill:none;stroke:#CCCCCC;stroke-width:4;stroke-linecap:round;stroke-linejoin:round;stroke-miterlimit:10;}
	.st1{fill:#FFFFFF;stroke:#CCCCCC;stroke-width:4;stroke-linecap:round;stroke-linejoin:round;stroke-miterlimit:10;}
	.st2{fill:#B3E3FF;stroke:#404040;stroke-width:4;stroke-miterlimit:10;}
	.st3{fill:#FFFFFF;stroke:#404040;stroke-width:4;stroke-miterlimit:10;}
	.st4{fill:none;stroke:#404040;stroke-width:4;stroke-miterlimit:10;}
	.st5{fill:#59AFE1;stroke:#404040;stroke-width:4;stroke-linejoin:round;stroke-miterlimit:10;}
	.st6{fill:#404040;}
	.st7{fill:none;stroke:#404040;stroke-width:4;stroke-linecap:round;stroke-linejoin:round;stroke-miterlimit:10;}
	.st8{fill:#4ED1A1;stroke:#404040;stroke-width:4;stroke-linecap:round;stroke-linejoin:round;stroke-miterlimit:10;}
	.st9{fill:#FFFFFF;stroke:#404040;stroke-width:4;stroke-linecap:round;stroke-linejoin:round;stroke-miterlimit:10;}
	.st10{fill:#B3E3FF;stroke:#404040;stroke-width:4;stroke-linecap:round;stroke-linejoin:round;stroke-miterlimit:10;}
	.st11{fill:#414141;}
</style>
<path class="st0" d="M301.6,237c0,22.6-18.4,41-41,41 M301.6,237c0-22.6,18.4-41,41-41H503"/>
<circle class="st1" cx="386" cy="196" r="21"/>
<circle class="st1" cx="482" cy="196" r="21"/>
<path class="st2" d="M90.6,278h170"/>
<circle class="st3" cx="111.6" cy="278" r="21"/>
<circle class="st3" cx="207.6" cy="278" r="21"/>
<path class="st4" d="M575,237c0,22.6-18.4,41-41,41 M575,237c0-22.6,18.4-41,41-41h22.4"/>
<circle class="st5" cx="659.4" cy="196" r="21"/>
<path class="st2" d="M243.9,278H534"/>
<circle class="st2" cx="385" cy="278" r="21"/>
<circle class="st3" cx="481" cy="278" r="21"/>
<circle class="st3" cx="385" cy="278" r="21"/>
<path class="st1" d="M432.3,55.1h100v50h-100V55.1z"/>
<path class="st6" d="M455.4,86.1V75.4h6.5v1.4h-5v3.4h4.5v1.4h-4.5v4.5C456.9,86.1,455.4,86.1,455.4,86.1z M470.1,84
	c-0.4,1.3-1.6,2.3-3.2,2.3c-1.9,0-3.6-1.4-3.6-3.9c0-2.3,1.6-3.8,3.4-3.8c2.2,0,3.5,1.5,3.5,3.8v0.4h-5.4c0,1.3,1,2.2,2.2,2.2
	s1.8-0.6,2-1.5L470.1,84z M468.6,81.7c0-1-0.7-1.8-2-1.8c-1.2,0-1.9,0.9-2,1.8H468.6z M474.4,81.9l2-0.3c0.4-0.1,0.6-0.3,0.6-0.5
	c0-0.7-0.5-1.3-1.6-1.3c-1,0-1.5,0.6-1.6,1.5l-1.4-0.3c0.2-1.4,1.4-2.3,3-2.3c2.2,0,3,1.2,3,2.6v3.6c0,0.6,0.1,1,0.1,1.2H477
	c0-0.2-0.1-0.5-0.1-1c-0.3,0.5-1,1.2-2.3,1.2c-1.5,0-2.4-1-2.4-2.2C472.2,82.8,473.2,82.1,474.4,81.9L474.4,81.9z M476.9,83v-0.3
	l-2.2,0.3c-0.6,0.1-1,0.4-1,1.1c0,0.5,0.5,1,1.2,1C476,85.1,476.9,84.5,476.9,83z M483.2,78.8h1.6v1.3h-1.6v3.8c0,0.7,0.3,1,1,1
	c0.2,0,0.4,0,0.6-0.1V86c-0.1,0-0.5,0.1-1,0.1c-1.2,0-2-0.8-2-2.1v-4h-1.4v-1.3h0.4c0.8,0,1.1-0.5,1.1-1.1v-1.2h1.3V78.8z M490,86.3
	c-1.7,0-2.7-1.3-2.7-2.9v-4.5h1.4v4.3c0,1,0.5,1.9,1.6,1.9s1.7-0.8,1.7-1.8V79h1.4v5.9c0,0.6,0,1.1,0.1,1.3h-1.3
	c0-0.2-0.1-0.6-0.1-0.9C491.7,85.9,490.8,86.3,490,86.3z M500.6,80.3H500c-1.2,0-2,0.6-2,2.2v3.6h-1.4v-7.2h1.4v1.3
	c0.5-1.1,1.4-1.4,2.2-1.4h0.5v1.5H500.6z M509,84c-0.4,1.3-1.6,2.3-3.2,2.3c-1.9,0-3.6-1.4-3.6-3.9c0-2.3,1.6-3.8,3.5-3.8
	c2.2,0,3.5,1.5,3.5,3.8v0.4h-5.4c0,1.3,1,2.2,2.2,2.2s1.8-0.6,2-1.5L509,84z M507.6,81.7c0-1-0.7-1.8-2-1.8c-1.2,0-1.9,0.9-2,1.8
	H507.6z M387.8,194.3c-0.1-0.5-0.5-1.3-1.8-1.3c-0.9,0-1.5,0.6-1.5,1.1s0.3,0.9,1,1l1.4,0.3c2,0.4,3.1,1.7,3.1,3.2
	c0,1.7-1.4,3.4-3.9,3.4c-2.9,0-4.2-1.9-4.3-3.4l2.2-0.5c0.1,1,0.8,1.8,2.2,1.8c0.9,0,1.5-0.4,1.5-1.1c0-0.5-0.4-0.9-1.1-1.1
	l-1.5-0.3c-1.8-0.3-2.9-1.5-2.9-3.1c0-2,1.8-3.4,3.8-3.4c2.7,0,3.7,1.6,3.9,2.8L387.8,194.3L387.8,194.3z"/>
<path class="st7" d="M482.3,150.9v-23.5 M493.1,142.2L482.3,153l-10.9-10.8"/>
<path class="st8" d="M609.4,55.1h100v50h-100V55.1z"/>
<path class="st6" d="M632.6,86.1V75.4h6.5v1.4h-5v3.4h4.5v1.4H634v4.5C634,86.1,632.6,86.1,632.6,86.1z M647.2,84
	c-0.4,1.3-1.6,2.3-3.2,2.3c-1.9,0-3.6-1.4-3.6-3.9c0-2.3,1.6-3.8,3.5-3.8c2.2,0,3.5,1.5,3.5,3.8v0.4H642c0,1.3,1,2.2,2.2,2.2
	s1.8-0.6,2-1.5L647.2,84z M645.8,81.7c0-1-0.7-1.8-2-1.8c-1.2,0-1.9,0.9-2,1.8H645.8z M651.5,81.9l2-0.3c0.4-0.1,0.6-0.3,0.6-0.5
	c0-0.7-0.5-1.3-1.6-1.3c-1,0-1.5,0.6-1.6,1.5l-1.4-0.3c0.2-1.4,1.4-2.3,3-2.3c2.2,0,3,1.2,3,2.6v3.6c0,0.6,0.1,1,0.1,1.2h-1.4
	c0-0.2-0.1-0.5-0.1-1c-0.3,0.5-1,1.2-2.3,1.2c-1.5,0-2.4-1-2.4-2.2C649.3,82.8,650.3,82.1,651.5,81.9L651.5,81.9z M654,83v-0.3
	l-2.2,0.3c-0.6,0.1-1.1,0.4-1.1,1.1c0,0.5,0.5,1,1.2,1C653.1,85.1,654,84.5,654,83z M660.3,78.8h1.6v1.3h-1.6v3.8c0,0.7,0.3,1,1,1
	c0.2,0,0.4,0,0.6-0.1V86c-0.1,0-0.5,0.1-1,0.1c-1.2,0-2-0.8-2-2.1v-4h-1.4v-1.3h0.4c0.8,0,1.1-0.5,1.1-1.1v-1.2h1.3L660.3,78.8
	L660.3,78.8z M667.1,86.3c-1.7,0-2.7-1.3-2.7-2.9v-4.5h1.4v4.3c0,1,0.4,1.9,1.6,1.9c1.1,0,1.7-0.8,1.7-1.8V79h1.4v5.9
	c0,0.6,0,1.1,0.1,1.3h-1.3c0-0.2-0.1-0.6-0.1-0.9C668.8,85.9,667.9,86.3,667.1,86.3L667.1,86.3z M677.7,80.3h-0.6
	c-1.2,0-2,0.6-2,2.2v3.6h-1.4v-7.2h1.4v1.3c0.5-1.1,1.4-1.4,2.2-1.4h0.5v1.5H677.7z M686.2,84c-0.4,1.3-1.6,2.3-3.2,2.3
	c-1.9,0-3.6-1.4-3.6-3.9c0-2.3,1.6-3.8,3.4-3.8c2.2,0,3.5,1.5,3.5,3.8v0.4h-5.4c0,1.3,1,2.2,2.2,2.2s1.8-0.6,2-1.5L686.2,84z
	 M684.7,81.7c0-1-0.7-1.8-2-1.8c-1.2,0-1.9,0.9-2,1.8H684.7z"/>
<path class="st7" d="M659.4,150.9v-23.5 M670.2,142.2L659.4,153l-10.9-10.8"/>
<path class="st7" d="M481,323.5V347 M470.2,332.2l10.8-10.9l10.9,10.9"/>
<path class="st9" d="M652.9,196.1h13 M654.8,191.5l9.2,9.2 M664,191.5l-9.2,9.2 M659.4,189.6v13"/>
<path class="st7" d="M594.4,26.6h15.4V11.2 M607.7,24.3C597.7,14.8,584.2,9,569.4,9S541,14.8,531,24.3"/>
<path class="st6" d="M397.3,516.8c-0.1-0.5-0.5-1.3-1.8-1.3c-0.9,0-1.5,0.6-1.5,1.1s0.3,0.9,1,1l1.4,0.3c2,0.4,3.1,1.7,3.1,3.2
	c0,1.7-1.4,3.4-3.9,3.4c-2.9,0-4.2-1.9-4.3-3.4l2.2-0.5c0.1,1,0.8,1.8,2.2,1.8c0.9,0,1.5-0.4,1.5-1.1c0-0.5-0.4-0.9-1.1-1.1
	l-1.5-0.3c-1.8-0.3-2.9-1.5-2.9-3.1c0-2,1.8-3.4,3.8-3.4c2.7,0,3.7,1.6,3.9,2.8L397.3,516.8L397.3,516.8z M425.3,487.4
	c2,0,3.2,1.2,3.2,2.9c0,1.1-0.7,2-1.6,2.3c1.2,0.3,1.9,1.4,1.9,2.6c0,1.7-1.3,2.9-3.3,2.9h-3.7v-10.6L425.3,487.4L425.3,487.4z
	 M425.2,492c1.2,0,1.9-0.7,1.9-1.7s-0.7-1.7-2-1.7h-1.8v3.4L425.2,492L425.2,492z M425.4,496.7c1.2,0,2-0.7,2-1.7s-0.6-1.7-1.9-1.7
	h-2.1v3.4L425.4,496.7L425.4,496.7z M435.4,492.2h-0.6c-1.2,0-2,0.6-2,2.2v3.6h-1.4v-7.2h1.4v1.3c0.5-1.1,1.4-1.4,2.2-1.4h0.5v1.5
	H435.4z M439.4,493.9l2-0.3c0.4-0.1,0.6-0.3,0.6-0.5c0-0.7-0.5-1.3-1.6-1.3c-1,0-1.5,0.6-1.6,1.5l-1.3-0.3c0.1-1.4,1.4-2.3,3-2.3
	c2.2,0,3,1.2,3,2.6v3.6c0,0.6,0.1,1,0.1,1.2H442c0-0.2-0.1-0.5-0.1-1c-0.3,0.5-1,1.2-2.3,1.2c-1.5,0-2.4-1-2.4-2.2
	C437.2,494.8,438.2,494.1,439.4,493.9L439.4,493.9z M441.9,494.9v-0.3l-2.2,0.3c-0.6,0.1-1.1,0.4-1.1,1.1c0,0.5,0.5,1,1.2,1
	C441,497,441.9,496.5,441.9,494.9z M447.7,498h-1.4v-7.2h1.4v1c0.5-0.9,1.4-1.2,2.2-1.2c1.7,0,2.6,1.2,2.6,2.9v4.6H451v-4.3
	c0-1-0.4-1.8-1.7-1.8c-1.1,0-1.7,0.9-1.7,2v4H447.7z M460.5,496.9c-0.3,0.7-1.1,1.3-2.2,1.3c-2.1,0-3.4-1.7-3.4-3.8
	c0-2,1.4-3.8,3.4-3.8c1.3,0,2,0.6,2.2,1.2v-4.7h1.4v9.5c0,0.7,0.1,1.2,0.1,1.3h-1.4C460.6,497.7,460.5,497.4,460.5,496.9z
	 M458.4,496.9c1.3,0,2.1-1.1,2.1-2.6s-0.8-2.5-2.1-2.5s-2.1,1-2.1,2.5C456.3,495.9,457.1,496.9,458.4,496.9z M476.9,498l-5.7-8.7
	v8.7h-1.5v-10.6h2l5.3,8.2v-8.2h1.5V498H476.9L476.9,498z M488,495.9c-0.4,1.3-1.6,2.3-3.2,2.3c-1.9,0-3.6-1.4-3.6-3.9
	c0-2.3,1.6-3.8,3.5-3.8c2.2,0,3.5,1.5,3.5,3.8v0.4h-5.4c0,1.3,1,2.2,2.2,2.2s1.8-0.6,2-1.5L488,495.9z M486.6,493.6
	c0-1-0.7-1.8-2-1.8c-1.2,0-1.9,0.9-2,1.8H486.6z M496,490.8l1.9,5.4l1.6-5.4h1.5l-2.3,7.2h-1.5l-1.9-5.5l-1.9,5.5h-1.5l-2.4-7.2h1.5
	l1.6,5.4l1.9-5.4H496L496,490.8z M507.1,492.7c0-3.6,2.6-5.5,5.3-5.5c2.4,0,4.1,1.3,4.7,3.4l-1.4,0.5c-0.4-1.6-1.6-2.5-3.3-2.5
	c-1.9,0-3.8,1.4-3.8,4.2s1.8,4.2,3.8,4.2c1.8,0,3-1.1,3.4-2.6l1.3,0.5c-0.6,2-2.2,3.4-4.7,3.4C509.7,498.2,507.1,496.2,507.1,492.7z
	 M526.2,494.4c0,2.2-1.5,3.8-3.7,3.8s-3.7-1.6-3.7-3.8c0-2.2,1.5-3.8,3.7-3.8S526.2,492.2,526.2,494.4z M524.7,494.4
	c0-1.7-1-2.6-2.2-2.6s-2.2,0.9-2.2,2.6s1,2.6,2.2,2.6S524.7,496.1,524.7,494.4z M528.7,498v-7.2h1.3v1c0.5-0.8,1.4-1.2,2.2-1.2
	c0.9,0,1.8,0.4,2.2,1.4c0.6-1,1.5-1.4,2.4-1.4c1.3,0,2.5,0.9,2.5,2.7v4.7h-1.4v-4.5c0-0.9-0.5-1.6-1.5-1.6s-1.7,0.8-1.7,1.8v4.4
	h-1.4v-4.5c0-0.9-0.5-1.6-1.5-1.6s-1.7,0.8-1.7,1.8v4.3L528.7,498L528.7,498z M542.3,498v-7.2h1.3v1c0.5-0.8,1.4-1.2,2.2-1.2
	c0.9,0,1.8,0.4,2.2,1.4c0.6-1,1.5-1.4,2.4-1.4c1.3,0,2.5,0.9,2.5,2.7v4.7h-1.4v-4.5c0-0.9-0.5-1.6-1.5-1.6s-1.7,0.8-1.7,1.8v4.4
	h-1.4v-4.5c0-0.9-0.5-1.6-1.5-1.6s-1.7,0.8-1.7,1.8v4.3L542.3,498L542.3,498z M556.6,487c0.6,0,1,0.4,1,1s-0.5,1-1,1
	c-0.6,0-1-0.5-1-1S556,487,556.6,487z M555.9,498v-7.2h1.4v7.2H555.9z M562.3,490.8h1.6v1.3h-1.6v3.8c0,0.7,0.3,1,1,1
	c0.2,0,0.4,0,0.6-0.1v1.2c-0.1,0-0.5,0.1-1,0.1c-1.2,0-2-0.8-2-2.1v-4h-1.4v-1.3h0.4c0.8,0,1.1-0.5,1.1-1.1v-1.2h1.3L562.3,490.8
	L562.3,490.8z M567.2,495.7c0.1,0.8,0.7,1.3,1.7,1.3c0.8,0,1.2-0.5,1.2-1c0-0.4-0.3-0.8-0.9-0.9l-1.2-0.3c-1.1-0.2-1.8-1-1.8-2
	c0-1.2,1.2-2.3,2.6-2.3c2,0,2.6,1.3,2.7,1.9l-1.2,0.5c-0.1-0.4-0.4-1.2-1.5-1.2c-0.7,0-1.2,0.5-1.2,1c0,0.4,0.3,0.8,0.8,0.9l1.2,0.3
	c1.3,0.3,2,1.1,2,2.1s-0.9,2.2-2.6,2.2c-2,0-2.8-1.3-2.9-2.1L567.2,495.7L567.2,495.7z"/>
<path class="st9" d="M389.1,492.5h13 M391,487.9l9.2,9.2 M400.2,487.9l-9.2,9.2 M395.6,486v13"/>
<path class="st6" d="M426.9,516.2c-0.1-0.8-0.8-1.8-2.2-1.8c-1.2,0-2.1,0.8-2.1,1.8c0,0.8,0.5,1.4,1.4,1.5l1.6,0.3
	c1.8,0.4,2.8,1.5,2.8,3c0,1.6-1.4,3.1-3.7,3.1c-2.6,0-3.8-1.6-4-3.2l1.4-0.5c0.1,1.2,0.9,2.3,2.5,2.3c1.5,0,2.2-0.8,2.2-1.7
	c0-0.8-0.5-1.4-1.6-1.7l-1.5-0.3c-1.5-0.3-2.6-1.3-2.6-2.9c0-1.7,1.5-3.2,3.5-3.2c2.4,0,3.4,1.5,3.6,2.6L426.9,516.2L426.9,516.2z
	 M435.9,526.8V523c-0.4,0.7-1.2,1.2-2.2,1.2c-2.1,0-3.4-1.7-3.4-3.8c0-2,1.3-3.8,3.4-3.8c1.2,0,2,0.6,2.3,1.3v-1.1h1.4v10.1h-1.5
	L435.9,526.8z M433.8,522.9c1.3,0,2.1-1.1,2.1-2.6s-0.9-2.5-2.1-2.5c-1.3,0-2.1,1-2.1,2.5S432.5,522.9,433.8,522.9z M442.9,524.2
	c-1.7,0-2.7-1.3-2.7-2.9v-4.5h1.4v4.3c0,1,0.5,1.9,1.6,1.9s1.7-0.8,1.7-1.8v-4.3h1.4v5.9c0,0.6,0,1.1,0.1,1.3h-1.3
	c0-0.2-0.1-0.6-0.1-0.9C444.6,523.9,443.7,524.2,442.9,524.2z M451.2,519.9l2-0.3c0.4-0.1,0.6-0.3,0.6-0.5c0-0.7-0.5-1.3-1.6-1.3
	c-1,0-1.5,0.6-1.6,1.5l-1.4-0.3c0.2-1.4,1.4-2.3,3-2.3c2.2,0,3,1.2,3,2.6v3.6c0,0.6,0.1,1,0.1,1.2h-1.4c0-0.2-0.1-0.5-0.1-1
	c-0.3,0.5-1,1.2-2.3,1.2c-1.5,0-2.4-1-2.4-2.2C449.1,520.8,450,520.1,451.2,519.9L451.2,519.9z M453.8,520.9v-0.3l-2.2,0.3
	c-0.6,0.1-1,0.4-1,1.1c0,0.5,0.5,1,1.2,1C452.8,523,453.8,522.5,453.8,520.9z M458.7,521.7c0.1,0.8,0.7,1.3,1.7,1.3
	c0.8,0,1.2-0.5,1.2-1c0-0.4-0.3-0.8-0.9-0.9l-1.2-0.3c-1.1-0.2-1.8-1-1.8-2c0-1.2,1.2-2.3,2.6-2.3c2,0,2.6,1.3,2.7,1.9l-1.2,0.5
	c-0.1-0.4-0.4-1.2-1.5-1.2c-0.7,0-1.2,0.5-1.2,1c0,0.4,0.3,0.8,0.8,0.9l1.2,0.3c1.3,0.3,2,1.1,2,2.1s-0.9,2.2-2.6,2.2
	c-2,0-2.8-1.3-2.9-2.1L458.7,521.7L458.7,521.7z M467,524h-1.4v-10.9h1.4v4.5c0.5-0.8,1.4-1,2.2-1c1.7,0,2.6,1.2,2.6,2.9v4.6h-1.4
	v-4.3c0-1-0.4-1.8-1.7-1.8c-1.1,0-1.6,0.8-1.7,1.9V524z M481.1,521.9c-0.4,1.3-1.6,2.3-3.2,2.3c-1.9,0-3.6-1.4-3.6-3.9
	c0-2.3,1.6-3.8,3.5-3.8c2.2,0,3.5,1.5,3.5,3.8v0.5h-5.4c0,1.3,1,2.2,2.2,2.2s1.8-0.6,2-1.5L481.1,521.9z M479.7,519.6
	c0-1-0.7-1.8-2-1.8c-1.2,0-1.9,0.9-2,1.8H479.7z M488.7,522.9c-0.3,0.7-1.1,1.3-2.2,1.3c-2.1,0-3.4-1.7-3.4-3.8c0-2,1.4-3.8,3.4-3.8
	c1.3,0,2,0.6,2.2,1.2v-4.7h1.4v9.5c0,0.7,0.1,1.2,0.1,1.3h-1.4C488.8,523.7,488.7,523.4,488.7,522.9z M486.6,522.9
	c1.3,0,2.1-1.1,2.1-2.6s-0.8-2.5-2.1-2.5s-2.1,1-2.1,2.5S485.3,522.9,486.6,522.9z M497.2,518.7c0-3.6,2.6-5.5,5.3-5.5
	c2.4,0,4.1,1.3,4.7,3.4l-1.4,0.5c-0.4-1.6-1.6-2.5-3.3-2.5c-1.9,0-3.8,1.4-3.8,4.2s1.8,4.2,3.8,4.2c1.8,0,3-1.1,3.4-2.5l1.3,0.5
	c-0.6,2-2.2,3.4-4.7,3.4C499.8,524.2,497.2,522.2,497.2,518.7L497.2,518.7z M516.2,520.4c0,2.2-1.5,3.8-3.7,3.8s-3.7-1.6-3.7-3.8
	s1.5-3.8,3.7-3.8S516.2,518.2,516.2,520.4z M514.8,520.4c0-1.7-1-2.6-2.2-2.6s-2.2,0.9-2.2,2.6c0,1.7,1,2.6,2.2,2.6
	S514.8,522.1,514.8,520.4z M518.8,524v-7.2h1.3v1c0.5-0.8,1.4-1.2,2.2-1.2c0.9,0,1.8,0.4,2.2,1.4c0.6-1,1.5-1.4,2.4-1.4
	c1.3,0,2.5,0.9,2.5,2.7v4.7H528v-4.5c0-0.9-0.5-1.7-1.5-1.7s-1.7,0.8-1.7,1.8v4.4h-1.4v-4.5c0-0.9-0.4-1.7-1.5-1.7
	c-1,0-1.7,0.8-1.7,1.8v4.3h-1.4L518.8,524z M532.4,524v-7.2h1.4v1c0.5-0.8,1.3-1.2,2.2-1.2s1.8,0.4,2.2,1.4c0.6-1,1.5-1.4,2.4-1.4
	c1.3,0,2.5,0.9,2.5,2.7v4.7h-1.4v-4.5c0-0.9-0.5-1.7-1.5-1.7s-1.7,0.8-1.7,1.8v4.4H537v-4.5c0-0.9-0.5-1.7-1.5-1.7s-1.7,0.8-1.7,1.8
	v4.3h-1.4L532.4,524L532.4,524z M546.7,513c0.6,0,1,0.5,1,1c0,0.6-0.5,1-1,1c-0.6,0-1-0.5-1-1S546.1,513,546.7,513z M546,524v-7.2
	h1.4v7.2H546z M552.4,516.8h1.6v1.3h-1.6v3.8c0,0.7,0.3,1,1,1c0.2,0,0.4,0,0.6-0.1v1.2c-0.1,0-0.5,0.1-1,0.1c-1.2,0-2-0.8-2-2.1v-4
	h-1.4v-1.3h0.4c0.8,0,1.1-0.5,1.1-1.1v-1.2h1.3L552.4,516.8L552.4,516.8z"/>
<g>
	<path class="st10" d="M432.8,370H529v50h-96.2V370z"/>
	<g>
		<path class="st11" d="M465.7,401.1v-10h2l2.4,7.1c0.2,0.7,0.4,1.2,0.5,1.5c0.1-0.4,0.3-0.9,0.5-1.6l2.4-7h1.8v10H474v-8.4
			l-2.9,8.4h-1.2l-2.9-8.5v8.5H465.7z"/>
		<path class="st11" d="M482.7,400.2c-0.5,0.4-0.9,0.7-1.3,0.8c-0.4,0.2-0.9,0.2-1.4,0.2c-0.8,0-1.4-0.2-1.8-0.6s-0.6-0.9-0.6-1.5
			c0-0.4,0.1-0.7,0.2-1c0.2-0.3,0.4-0.5,0.6-0.7c0.3-0.2,0.6-0.3,0.9-0.4c0.2-0.1,0.6-0.1,1.1-0.2c1-0.1,1.7-0.3,2.2-0.4
			c0-0.2,0-0.3,0-0.3c0-0.5-0.1-0.9-0.3-1.1c-0.3-0.3-0.8-0.4-1.4-0.4s-1,0.1-1.3,0.3c-0.3,0.2-0.5,0.6-0.6,1.1l-1.2-0.2
			c0.1-0.5,0.3-0.9,0.5-1.2c0.3-0.3,0.6-0.6,1.1-0.7c0.5-0.2,1-0.3,1.6-0.3s1.1,0.1,1.5,0.2s0.7,0.3,0.9,0.6
			c0.2,0.2,0.3,0.5,0.4,0.8c0,0.2,0.1,0.6,0.1,1.1v1.6c0,1.1,0,1.9,0.1,2.2s0.2,0.6,0.3,0.9H483
			C482.8,400.9,482.7,400.6,482.7,400.2z M482.6,397.5c-0.4,0.2-1.1,0.3-2,0.5c-0.5,0.1-0.9,0.2-1.1,0.2s-0.4,0.2-0.5,0.4
			c-0.1,0.2-0.2,0.4-0.2,0.6c0,0.3,0.1,0.6,0.4,0.8c0.2,0.2,0.6,0.3,1.1,0.3s0.9-0.1,1.3-0.3c0.4-0.2,0.6-0.5,0.8-0.9
			c0.1-0.3,0.2-0.7,0.2-1.2L482.6,397.5L482.6,397.5z"/>
		<path class="st11" d="M486.4,392.5v-1.4h1.2v1.4H486.4z M486.4,401.1v-7.3h1.2v7.3H486.4z"/>
		<path class="st11" d="M490.2,401.1v-7.3h1.1v1c0.5-0.8,1.3-1.2,2.3-1.2c0.4,0,0.8,0.1,1.2,0.2c0.4,0.2,0.6,0.4,0.8,0.6
			s0.3,0.6,0.4,0.9c0,0.2,0.1,0.6,0.1,1.2v4.5h-1.2v-4.4c0-0.5,0-0.9-0.1-1.1s-0.3-0.4-0.5-0.6c-0.2-0.1-0.5-0.2-0.9-0.2
			c-0.5,0-1,0.2-1.4,0.5s-0.6,1-0.6,1.9v4H490.2L490.2,401.1z"/>
	</g>
</g>
</svg>
